<svg width="57" height="92" xmlns="http://www.w3.org/2000/svg" xmlns:svg="http://www.w3.org/2000/svg">
 <metadata id="Logo Gallicarte">image/svg+xml</metadata>
 <g>
  <path fill="#000000" id="pin" d="m27.68337,91.44394c-0.83362,-0.23209 -2.26831,-0.84026 -3.83591,-1.62607c-2.77841,-1.39279 -5.36241,-2.09542 -9.62836,-2.61816c-2.30338,-0.28224 -8.23702,-0.34042 -11.30328,-0.11082c-2.35176,0.1761 -2.50498,0.17583 -2.70442,-0.005c-0.20591,-0.18633 -0.21142,-0.66769 -0.21142,-18.45576c0,-16.45533 0.0173,-18.28179 0.17525,-18.43968c0.0964,-0.0964 0.25949,-0.17543 0.36245,-0.17565c0.35244,-0.0007 5.98607,1.70865 6.18153,1.87564c0.18409,0.15729 0.19516,1.02835 0.19516,15.36567c0,8.35944 0.0416,15.2247 0.0926,15.25616c0.0509,0.0314 1.09226,0.0869 2.31411,0.12311c5.27731,0.15657 8.80783,0.59503 12.48161,1.55013c1.96728,0.51145 3.3916,1.05609 5.21367,1.99361l1.53344,0.78901l1.53343,-0.78901c1.82208,-0.93752 3.24639,-1.48216 5.21367,-1.99361c3.66597,-0.95306 7.2225,-1.39559 12.43477,-1.54726c1.85322,-0.054 2.19529,-0.0908 2.31408,-0.24948c0.10991,-0.14681 0.13941,-3.37441 0.13941,-15.25889c0,-14.2171 0.011,-15.08217 0.19515,-15.23944c0.19548,-0.16699 5.82909,-1.87637 6.18153,-1.87564c0.10296,0.00024 0.26606,0.0793 0.36246,0.17565c0.15788,0.15789 0.17524,1.98435 0.17524,18.43968c0,17.78807 -0.005,18.26943 -0.21143,18.45576c-0.19944,0.1805 -0.35265,0.18077 -2.70441,0.005c-1.92787,-0.14436 -3.32724,-0.17308 -6.17323,-0.12676c-4.64335,0.0756 -7.33314,0.38477 -10.38661,1.19379c-1.70985,0.453 -2.71259,0.84083 -4.70983,1.82161c-2.94897,1.44812 -4.11852,1.77602 -5.2306,1.46641l-0.00006,0zm-2.53508,-8.65811c-2.07765,-0.78509 -4.77776,-1.43071 -7.86087,-1.87961c-1.79482,-0.26133 -5.33135,-0.55857 -6.64582,-0.55857c-1.56754,0 -1.38525,2.35532 -1.38525,-17.89936c0,-17.30457 0.002,-17.45517 0.22304,-17.67631c0.12267,-0.12268 0.26959,-0.22305 0.32648,-0.22305c0.0569,0 3.83332,1.48232 8.39207,3.29406c5.24207,2.0833 8.36036,3.37905 8.4838,3.52532c0.18382,0.21781 0.19516,1.13275 0.19516,15.75147c0,13.8665 -0.0185,15.54662 -0.17362,15.76807c-0.22574,0.32229 -0.47546,0.3059 -1.55499,-0.10202zm5.24788,0.10202c-0.1551,-0.22145 -0.17361,-1.90157 -0.17361,-15.76807c0,-14.61861 0.0114,-15.53368 0.19517,-15.75175c0.12367,-0.14674 3.23097,-1.43805 8.48295,-3.52533c4.55828,-1.81158 8.33471,-3.29377 8.39208,-3.29377c0.0573,0 0.20465,0.10032 0.32731,0.22305c0.22115,0.22114 0.22305,0.37174 0.22305,17.67631c0,20.27634 0.18889,17.89838 -1.42192,17.90086c-1.06307,0.002 -4.45786,0.25993 -5.88281,0.44761c-3.07223,0.40465 -6.04116,1.07919 -8.30632,1.88723c-0.69647,0.24845 -1.3554,0.45173 -1.46429,0.45173c-0.1089,0 -0.27611,-0.11156 -0.37161,-0.24787z"/>
  <path stroke="null" fill="#000000" d="m28.54976,0c-7.869473,0 -14.25,6.379101 -14.25,14.25c0,2.204297 0.500977,4.294505 1.395787,6.156445c0.050053,0.105806 12.854212,25.193554 12.854212,25.193554l12.699778,-24.881836c0.99082,-1.93987 1.550222,-4.138645 1.550222,-6.468164c0,-7.870898 -6.379101,-14.25 -14.25,-14.25zm0,22.8c-4.721737,0 -8.55,-3.829687 -8.55,-8.55c0,-4.720312 3.828262,-8.55 8.55,-8.55c4.720312,0 8.55,3.829687 8.55,8.55c0,4.720312 -3.829687,8.55 -8.55,8.55z" id="book"/>
 </g>
</svg>
